#!OML:ASF H:\Terrain\Patient Classification 1\Takeo\Monday\TakeoMonday.ASF
:FULLY-SPECIFIED
:DEGREES
1407
root 13.1337 17.841 1.56625 -3.0808 -10.8934 2.78432
lowerback 4.89524 0.0404138 0.371493
upperback 1.90066 0.080817 1.21679
thorax -0.79325 0.0363932 1.03522
lowerneck -8.97943 1.96967 -3.45401
upperneck -3.93521 2.94272 2.87909
head 0.182739 1.53584 1.56035
rclavicle -5.01931e-015 -2.14687e-014
rhumerus -23.5208 41.3837 -106.431
rradius 67.4198
rwrist -14.9232
rhand -44.8782 44.909
rfingers 7.12502
rthumb -17.6665 15.6916
lclavicle -5.01931e-015 -2.14687e-014
lhumerus -24.2563 -19.8326 107.824
lradius 84.5887
lwrist 24.4419
lhand -31.6706 20.7689
lfingers 7.12502
lthumb -4.93065 50.6915
rfemur -5.63288 0.816586 17.3698
rtibia 23.9219
rfoot -14.5656 -12.0142
rtoes 2.34424
lfemur -0.735506 2.2734 -18.9437
ltibia 22.0825
lfoot -14.0421 17.4789
ltoes -9.95787
1408
root 13.1176 17.8285 1.55816 -3.12274 -10.8627 2.61675
lowerback 5.09127 0.0715345 0.452094
upperback 1.74709 0.132213 1.33817
thorax -1.061 0.0624999 1.1117
lowerneck -9.54281 1.83406 -2.56446
upperneck -2.94285 2.67875 1.77219
head 0.618361 1.38139 1.06842
rclavicle -1.38652e-014 3.97569e-015
rhumerus -23.9709 41.2163 -106.616
rradius 67.5166
rwrist -14.6021
rhand -45.0469 44.5193
rfingers 7.12502
rthumb -17.8287 15.3165
lclavicle -1.38652e-014 3.97569e-015
lhumerus -24.5505 -19.7628 108.059
lradius 84.5228
lwrist 24.6446
lhand -31.8352 20.43
lfingers 7.12502
lthumb -5.08959 50.3488
rfemur -5.51285 0.854069 17.6313
rtibia 23.8135
rfoot -14.4882 -12.1308
rtoes 2.06262
lfemur -0.560075 2.61132 -18.8387
ltibia 21.9795
lfoot -14.2138 17.7449
ltoes -9.32523
1409
root 13.1036 17.8377 1.559 -3.00312 -10.7042 2.83141
lowerback 4.90235 0.0717296 0.240314
upperback 1.58012 0.122026 1.27797
thorax -1.12718 0.0579907 1.16937
lowerneck -9.98536 1.7001 -1.95804
upperneck -1.96021 2.44793 1.07272
head 1.02371 1.24815 0.756655
rclavicle -2.52457e-014 1.43125e-014
rhumerus -24.1682 41.1329 -106.784
rradius 67.4291
rwrist -14.5633
rhand -45.1859 44.4061
rfingers 7.12502
rthumb -17.9625 15.2156
lclavicle -2.52457e-014 1.43125e-014
lhumerus -24.8261 -19.8251 108.128
lradius 84.4303
lwrist 24.7633
lhand -32.0434 19.8158
lfingers 7.12502
lthumb -5.29062 49.7297
rfemur -5.7068 0.878511 17.4306
rtibia 23.7522
rfoot -14.3765 -12.3153
rtoes 1.48851
lfemur -0.615763 2.35497 -19.2336
ltibia 21.7822
lfoot -14.8747 18.4241
ltoes -6.0885
1410
root 13.0919 17.8507 1.5611 -2.86231 -10.3989 2.75152
lowerback 4.63401 -0.0383815 0.352637
upperback 1.52491 -0.0218701 1.23191
thorax -1.03148 -0.0136725 1.06688
lowerneck -10.2796 1.75416 -1.6348
upperneck -1.20319 2.48799 1.01929
head 1.32227 1.26428 0.699873
rclavicle 4.57205e-015 -4.77083e-015
rhumerus -24.0947 41.1993 -106.93
rradius 67.3958
rwrist -14.6541
rhand -45.2806 44.5824
rfingers 7.12502
rthumb -18.0537 15.4003
lclavicle 4.57205e-015 -4.77083e-015
lhumerus -24.9073 -19.8544 107.952
lradius 84.4225
lwrist 24.6725
lhand -32.2416 19.465
lfingers 7.12502
lthumb -5.48204 49.3741
rfemur -5.86636 0.652219 17.5264
rtibia 23.8494
rfoot -14.5319 -12.3243
rtoes 1.92621
lfemur -0.588515 1.83924 -19.2897
ltibia 21.3065
lfoot -15.3119 19.1532
ltoes -3.0982
1411
root 13.0798 17.8471 1.56161 -2.96591 -10.198 2.7284
lowerback 4.53367 -0.110485 0.35328
upperback 1.60074 -0.120322 1.20538
thorax -0.896191 -0.063114 1.04416
lowerneck -10.6808 1.90795 -1.42476
upperneck -0.590625 2.66668 1.18458
head 1.59081 1.35678 0.737521
rclavicle -1.32192e-014 -4.77083e-015
rhumerus -23.9379 41.3658 -106.927
rradius 67.4259
rwrist -14.5058
rhand -45.5158 44.516
rfingers 7.12502
rthumb -18.2799 15.3549
lclavicle -1.32192e-014 -4.77083e-015
lhumerus -24.7278 -19.9261 107.786
lradius 84.3103
lwrist 24.6771
lhand -32.3015 19.5209
lfingers 7.12502
lthumb -5.53982 49.4285
rfemur -5.71857 0.324812 17.5774
rtibia 23.9842
rfoot -14.8477 -12.1542
rtoes 3.2035
lfemur -0.261137 1.47221 -19.3335
ltibia 20.6973
lfoot -15.0648 19.7816
ltoes -3.39592
1412
root 13.0685 17.84 1.55644 -3.17313 -10.025 3.15287
lowerback 4.54697 -0.119072 -0.169616
upperback 1.66833 -0.155642 1.15473
thorax -0.832416 -0.0819431 1.28742
lowerneck -11.036 1.97974 -1.47981
upperneck -0.114342 2.76566 1.3583
head 1.80707 1.41087 0.81884
rclavicle 4.57205e-015 -7.95139e-016
rhumerus -23.7585 41.4408 -106.76
rradius 67.3578
rwrist -14.2452
rhand -45.6354 44.132
rfingers 7.12502
rthumb -18.3949 14.9818
lclavicle 4.57205e-015 -7.95139e-016
lhumerus -24.4674 -20.0891 107.782
lradius 84.1163
lwrist 25.0032
lhand -32.3645 19.5494
lfingers 7.12502
lthumb -5.60069 49.4554
rfemur -5.56144 0.300112 17.1668
rtibia 24.0536
rfoot -15 -12.2398
rtoes 4.13538
lfemur 0.0358295 0.945437 -19.8428
ltibia 20.2429
lfoot -14.8358 20.2732
ltoes -4.05312
1413
root 13.0679 17.8345 1.55065 -3.2944 -9.37755 3.47808
lowerback 4.53459 -0.282549 -0.472183
upperback 1.67459 -0.386907 1.10451
thorax -0.811858 -0.19811 1.41755
lowerneck -11.0185 1.91157 -1.83036
upperneck 0.0735776 2.70621 1.73948
head 1.85945 1.39127 1.00068
rclavicle 1.52567e-014 -7.95139e-015
rhumerus -23.5905 41.334 -106.737
rradius 67.1288
rwrist -13.9833
rhand -45.5631 44.0337
rfingers 7.12502
rthumb -18.3254 14.8769
lclavicle 1.52567e-014 -7.95139e-015
lhumerus -24.4123 -20.1561 107.83
lradius 84.0883
lwrist 25.079
lhand -32.3091 19.5048
lfingers 7.12502
lthumb -5.5472 49.4122
rfemur -5.44891 -0.0015873 16.8066
rtibia 24.1112
rfoot -15.0299 -12.5112
rtoes 3.56108
lfemur 0.191209 0.0244916 -20.298
ltibia 19.8997
lfoot -14.4371 20.6145
ltoes -4.83945
